# xmcd CD database file
#
# Track frame offsets:
#	150
#	16030
#	34157
#
# Disc length: 654 seconds
#
# Revision: 0
# Processed by: cddbd v1.5.1PL0 Copyright (c) Steve Scherf et al.
# Submitted via: CDex 1.51
#
DISCID=16028c03
DTITLE=SOON - Pearl Gray
DYEAR=1995
DGENRE=J-pop
TTITLE0=Pearl Gray (Single Mix)
TTITLE1=Shipbuilding
TTITLE2=Pearl Gray (Demo'93)
EXTD=YEAR: 1995
EXTT0=
EXTT1=
EXTT2=
PLAYORDER=
